<svg xmlns="http://www.w3.org/2000/svg" fill="none" viewBox="0 0 300 300" height="250" width="250"><path fill="#91D7F0" stroke="#2441BA" stroke-linejoin="round" d="M178.717 33.7126L295.004 150L237.467 150L121.291 33.7126L178.717 33.7126Z"></path><path fill="#2441BA" stroke="#2441BA" stroke-linejoin="round" d="M295.004 150L178.717 266.287L121.291 266.287L237.467 150L295.004 150Z"></path><path stroke="#2441BA" stroke-linejoin="round" d="M174.661 150L121.287 203.374L67.9136 150L121.287 96.6262L174.661 150Z" clip-rule="evenodd"></path><path fill="#CCF0F8" fill-rule="evenodd" stroke="#2441BA" stroke-linejoin="round" d="M121.287 266.287L237.574 150L121.287 33.7126L5 150L121.287 266.287ZM121.288 203.374L174.661 150L121.288 96.6261L67.9139 150L121.288 203.374Z" clip-rule="evenodd"></path><path fill="#2441BA" stroke="#2441BA" stroke-linejoin="round" d="M143.77 119.108L112.879 149.999H67.9136L121.287 96.6255L143.77 119.108Z"></path><path fill="#91D7F0" stroke="#2441BA" stroke-linejoin="round" d="M112.879 150L143.77 180.89L121.287 203.373L67.9136 150H112.879Z"></path></svg>